<svg height="512" viewBox="0 0 58 59" width="512" xmlns="http://www.w3.org/2000/svg"><g id="Page-1" fill="none" fill-rule="evenodd"><g id="054---Heartrate-Watch" fill-rule="nonzero" transform="translate(-1)"><path id="Shape" d="m25.07 48.1-8.47 8.47c-1.9536113 1.9602929-5.1253604 1.96924-7.09.02l-7.07-7.08c-1.9491981-1.9607617-1.94024465-5.1302819.02-7.08l8.47-8.47 9.07 5.04z" fill="#f29c1f"/><path id="Shape" d="m57.56 15.61-8.45 8.45-9.11-5.06-5.03-9.08 8.44-8.45c1.9572931-1.94975729 5.1227069-1.94975729 7.08 0l7.07 7.07c1.9519097 1.9524993 1.9519097 5.1175007 0 7.07z" fill="#f29c1f"/><path id="Shape" d="m51.23 31.84-18.38 18.38c-1.5642825 1.5597839-4.0957175 1.5597839-5.66 0l-18.38-18.38c-1.55978389-1.5642825-1.55978389-4.0957175 0-5.66l18.38-18.38c.7489618-.75357224 1.767543-1.17731445 2.83-1.17731445s2.0810382.42374221 2.83 1.17731445l18.38 18.38c.7535722.7489618 1.1773145 1.767543 1.1773145 2.83s-.4237423 2.0810382-1.1773145 2.83z" fill="#393f4a"/><path id="Shape" d="m51.91 27.08c-4.75-3.76-24.27-17.13-43.66-.19.15454423-.2603234.34284401-.4990606.56-.71l18.38-18.38c.7489618-.75357224 1.767543-1.17731445 2.83-1.17731445s2.0810382.42374221 2.83 1.17731445l18.38 18.38c.2715835.2632609.5009455.5668283.68.9z" fill="#464f5d"/><path id="Shape" d="m34.758 24.271c2.5375462-.3798905 5.1056907.4587403 6.93 2.263 2.721 2.721 2.2 6.991-.59 9.781-3.188 3.189-9.5 4.514-19.257 1.367-.2338428-.0767593-.4172407-.2601572-.494-.494-3.147-9.758-1.822-16.069 1.367-19.258 2.79-2.789 7.06-3.31 9.781-.589 1.8042597 1.8243093 2.6428905 4.3924538 2.263 6.93z" fill="#ff5364"/><path id="Shape" d="m38.93 38.918c-.2651948-.0000566-.5195073-.1054506-.707-.293l-4.23-4.225-5.778 1.92c-.3731457.1238435-.784235.0175446-1.0505761-.2716566s-.338506-.7076341-.1844239-1.0693434l3.525-8.227-6.646 1.08c-.3222986.0525205-.6499384-.0556317-.8776346-.2897027-.2276963-.2340709-.3267628-.5645713-.2653654-.8852973l.566-2.972-2.882-2.879c-.3789722-.3923789-.3735524-1.0160848.0121814-1.4018186s1.0094397-.3911536 1.4018186-.0121814l3.253 3.253c.2339718.2341239.3369365.5688528.275.894l-.4 2.09 7.033-1.144c.3602058-.0587231.7237964.0834512.9486239.370939.2248275.2874877.2751816.674626.1313761 1.010061l-3.355 7.854 4.247-1.42c.3590364-.121749.7560677-.0282157 1.023.241l4.667 4.667c.2859079.2859943.3714219.7160366.216678 1.0896546-.1547439.3736179-.5192821.6172591-.923678.6173454z" fill="#f3d55b"/><path id="Shape" d="m30.021 48.394c-.2655413.0002088-.5202623-.1052054-.708-.293l-2.121-2.122c-.3907414-.3904653-.3909653-1.0237585-.0005-1.4145.3904653-.3907414 1.0237585-.3909653 1.4145-.0005l1.415 1.415 1.414-1.415c.3907415-.3904653 1.0240347-.3902414 1.4145.0005.3904653.3907415.3902414 1.0240347-.0005 1.4145l-2.121 2.121c-.1873289.1879162-.4416616.2936783-.707.294z" fill="#fff"/><g fill="#d25627"><path id="Shape" d="m48.405 14.452c-.2651948-.0000566-.5195073-.1054506-.707-.293l-2.828-2.828c-.2599566-.2510745-.3642126-.6228779-.2726972-.9725073.0915155-.3496295.3645604-.62267442.7141899-.71418986.3496294-.09151544.7214328.01274058.9725073.27269716l2.828 2.828c.2859079.2859943.3714219.7160366.216678 1.0896546-.1547439.3736179-.5192821.6172591-.923678.6173454z"/><path id="Shape" d="m51.941 10.917c-.2651948-.0000566-.5195073-.1054506-.707-.293l-2.829-2.824c-.3789722-.39237889-.3735524-1.01608478.0121814-1.40181858.3857338-.38573379 1.0094397-.39115363 1.4018186-.01218142l2.829 2.829c.2859079.28599425.3714219.71603662.216678 1.0896546-.1547439.3736179-.5192821.6172591-.923678.6173454z"/><path id="Shape" d="m10.929 51.929c-.2651948-.0000566-.5195073-.1054506-.707-.293l-2.829-2.828c-.25995658-.2510745-.3642126-.6228779-.27269716-.9725073.09151544-.3496295.3645604-.6226744.71418984-.7141899.34962943-.0915154.72143285.0127406.97250732.2726972l2.829 2.828c.2859079.2859943.3714219.7160366.216678 1.0896546-.1547439.3736179-.5192821.6172591-.923678.6173454z"/><path id="Shape" d="m14.464 48.394c-.2651948-.0000566-.5195073-.1054506-.707-.293l-2.828-2.83c-.2599566-.2510745-.3642126-.6228779-.2726972-.9725073.0915155-.3496295.3645604-.6226744.7141899-.7141899.3496294-.0915154.7214328.0127406.9725073.2726972l2.828 2.83c.2859079.2859943.3714219.7160366.216678 1.0896546-.1547439.3736179-.5192821.6172591-.923678.6173454z"/></g></g></g></svg>