<svg id="Capa_1" enable-background="new 0 0 512 512" height="512" viewBox="0 0 512 512" width="512" xmlns="http://www.w3.org/2000/svg"><g><path d="m57.767 90.333h-34.267c-8.837 0-16-7.163-16-16v-50.833c0-8.837 7.163-16 16-16h34.267c8.837 0 16 7.163 16 16v50.833c0 8.837-7.164 16-16 16z" fill="#ff7045"/><path d="m380.731 24.071c-13.93-.264-25.331 11.474-25.331 25.405v90.557c0 9.15-7.417 16.567-16.567 16.567h-49.7-66.267-49.7c-9.15 0-16.567-7.417-16.567-16.567v-90.557c0-13.932-11.401-25.669-25.331-25.405-13.501.256-24.368 11.282-24.368 24.846v91.117c0 34.666 26.755 63.199 60.701 66.035 3.134.262 5.566 2.836 5.566 5.981v258.663c0 18.579 15.204 34.137 33.779 33.782 18.001-.344 32.487-15.044 32.487-33.127v-132.535h33.133v131.879c0 18.579 15.204 34.137 33.779 33.782 18.001-.344 32.487-15.044 32.487-33.127v-259.317c0-3.145 2.432-5.719 5.566-5.981 33.945-2.836 60.701-31.37 60.701-66.035v-91.117c.001-13.564-10.866-24.59-24.368-24.846z" fill="#ffdaaa"/><g fill="#ffbe8a"><path d="m133.6 49.477v90.557c0 9.149 7.417 16.566 16.567 16.566h23c-9.15 0-16.567-7.417-16.567-16.566v-90.557c0-13.932-11.401-25.67-25.331-25.405-4.017.076-7.797 1.112-11.131 2.878 7.991 4.284 13.462 12.877 13.462 22.527z"/><path d="m380.731 24.071c-4.282-.081-8.323.975-11.869 2.878 7.872 4.17 13.239 12.439 13.239 21.968v91.117c0 34.665-26.755 63.199-60.701 66.035-3.134.262-5.566 2.836-5.566 5.981v259.317c0 14.212-8.949 26.329-21.518 31.035 3.743 1.42 7.798 2.173 12.031 2.092 18.001-.344 32.487-15.044 32.487-33.127v-259.317c0-3.145 2.432-5.719 5.566-5.981 33.945-2.836 60.701-31.369 60.701-66.035v-91.117c-.001-13.564-10.868-24.59-24.37-24.846z"/><path d="m216.433 471.367c0 14.212-8.949 26.329-21.518 31.035 3.743 1.42 7.798 2.173 12.031 2.092 18.001-.344 32.487-15.044 32.487-33.127v-132.534h-23z"/></g><circle cx="256" cy="106.9" fill="#ffdaaa" r="49.7"/><circle cx="256" cy="106.9" fill="#ffdaaa" r="49.7"/><path d="m256 57.2c-3.96 0-7.807.477-11.5 1.352 21.901 5.191 38.2 24.86 38.2 48.348s-16.299 43.157-38.2 48.348c3.693.875 7.54 1.352 11.5 1.352 27.448 0 49.7-22.252 49.7-49.7s-22.252-49.7-49.7-49.7z" fill="#ffbe8a"/><path d="m173.167 289.134h165.667v-49.7c-27.448 0-49.7-22.251-49.7-49.7v-33.134h-66.267v33.133c0 27.449-22.251 49.7-49.7 49.7z" fill="#f2f6fc"/><path d="m239.433 371.967h-66.266v-82.833h165.666v82.833h-66.266v-33.134h-33.134z" fill="#19cffc"/><path d="m315.833 289.133h23v-49.7c-8.302 0-16.121-2.046-23-5.645z" fill="#cdd2e1"/><path d="m315.833 289.133h23v82.833h-23z" fill="#27ade2"/><path d="m239.433 471.367v-33.133h-66.267v32.479c0 18.579 15.204 34.137 33.779 33.782 18.002-.345 32.488-15.045 32.488-33.128z" fill="#9ca1af"/><path d="m272.567 470.712c0 18.579 15.204 34.137 33.779 33.782 18.001-.344 32.487-15.044 32.487-33.127v-33.133h-66.267v32.478z" fill="#9ca1af"/><path d="m216.433 471.367c0 14.212-8.949 26.329-21.518 31.035.441.167.887.323 1.336.472.044.015.088.03.132.044.415.135.835.261 1.257.38.09.025.179.05.269.074.388.106.78.204 1.173.295.135.031.271.06.407.09.359.079.72.152 1.083.219.183.033.367.062.551.092.327.054.654.106.984.15.236.031.474.055.712.081.287.031.574.065.863.089.312.025.627.04.942.057.224.012.447.029.672.037.547.017 1.096.023 1.65.012 18.001-.344 32.487-15.044 32.487-33.127v-33.133h-23z" fill="#717891"/><path d="m315.833 471.367c0 14.212-8.949 26.329-21.518 31.035.441.167.887.324 1.337.472.044.014.087.029.131.044.415.135.835.261 1.257.38.09.025.179.05.269.074.388.106.78.204 1.173.295.135.031.271.06.406.09.359.079.72.152 1.083.219.183.033.367.062.551.092.327.054.654.106.984.15.236.031.474.055.712.081.287.031.574.065.863.089.312.025.627.04.942.057.224.012.447.029.672.037.547.017 1.097.023 1.65.012 18.001-.344 32.487-15.044 32.487-33.127v-33.133h-23v33.133z" fill="#717891"/><path d="m57.767 7.5h-23c8.837 0 16 7.164 16 16v50.833c0 8.837-7.163 16-16 16h23c8.837 0 16-7.163 16-16v-50.833c0-8.836-7.164-16-16-16z" fill="#f44945"/><path d="m454.233 7.5h34.267c8.837 0 16 7.163 16 16v50.833c0 8.837-7.163 16-16 16h-34.267c-8.836 0-16-7.163-16-16v-50.833c0-8.837 7.164-16 16-16z" fill="#ff7045"/><path d="m488.498 7.5h-23c8.837 0 16 7.164 16 16v50.833c0 8.837-7.163 16-16 16h23c8.837 0 16-7.163 16-16v-50.833c0-8.836-7.163-16-16-16z" fill="#f44945"/></g><path d="m488.5 0h-34.267c-12.958 0-23.5 10.542-23.5 23.5v17.917h-19.02c-3.393-14.232-16.207-24.851-31.463-24.851s-28.07 10.619-31.463 24.851h-185.574c-3.393-14.232-16.207-24.851-31.463-24.851s-28.07 10.619-31.463 24.851h-19.02v-17.917c0-12.958-10.542-23.5-23.5-23.5h-34.267c-12.958 0-23.5 10.542-23.5 23.5v50.833c0 12.958 10.542 23.5 23.5 23.5h34.267c12.958 0 23.5-10.542 23.5-23.5v-17.916h18.133v83.616c0 38.143 29.102 69.617 66.267 73.389v87.349c0 4.143 3.358 7.5 7.5 7.5s7.5-3.357 7.5-7.5v-4.138h150.667v67.834h-51.267v-18.134h9.066c4.142 0 7.5-3.357 7.5-7.5s-3.358-7.5-7.5-7.5h-16.566-33.134-16.566c-4.142 0-7.5 3.357-7.5 7.5s3.358 7.5 7.5 7.5h9.066v18.134h-51.267v-33.918c0-4.142-3.358-7.5-7.5-7.5s-7.5 3.358-7.5 7.5v140.818c0 22.405 18.228 40.633 40.633 40.633s40.633-18.228 40.633-40.633v-125.034h18.134v125.034c0 22.405 18.228 40.633 40.633 40.633s40.633-18.228 40.633-40.633v-257.945c37.164-3.771 66.267-35.246 66.267-73.389v-83.616h18.133v17.916c0 12.958 10.542 23.5 23.5 23.5h34.268c12.958 0 23.5-10.542 23.5-23.5v-50.833c0-12.958-10.542-23.5-23.5-23.5zm-422.233 74.333c0 4.687-3.813 8.5-8.5 8.5h-9.633v-42.2c0-4.143-3.358-7.5-7.5-7.5s-7.5 3.357-7.5 7.5v42.2h-9.634c-4.687 0-8.5-3.813-8.5-8.5v-50.833c0-4.687 3.813-8.5 8.5-8.5h34.267c4.687 0 8.5 3.813 8.5 8.5zm165.666 305.134v51.267h-51.267v-51.267zm-25.633 117.533c-14.134 0-25.633-11.499-25.633-25.633v-25.634h51.267v25.634c-.001 14.134-11.5 25.633-25.634 25.633zm173.95-465.434c9.567 0 17.35 7.783 17.35 17.351v33.916h-34.7v-26.416h9.067c4.142 0 7.5-3.357 7.5-7.5s-3.358-7.5-7.5-7.5h-7.338c2.804-5.817 8.743-9.851 15.621-9.851zm-216.15 24.851h65.042c-18.037 9.635-30.342 28.646-30.342 50.483 0 16.692 7.189 31.733 18.631 42.199h-44.264c-4.999 0-9.066-4.067-9.066-9.066v-83.616zm49.7 50.483c0-23.27 18.931-42.2 42.2-42.2s42.2 18.931 42.2 42.2-18.931 42.199-42.2 42.199-42.2-18.93-42.2-42.199zm80.769 42.2c11.442-10.466 18.631-25.508 18.631-42.199 0-21.837-12.306-40.849-30.342-50.483h65.042v83.616c0 4.999-4.067 9.066-9.066 9.066zm-162.819-117.534c6.878 0 12.817 4.033 15.621 9.851h-7.338c-4.142 0-7.5 3.357-7.5 7.5s3.358 7.5 7.5 7.5h9.067v26.416h-34.7v-33.916c0-9.567 7.783-17.351 17.35-17.351zm-17.35 108.467v-42.2h34.7v42.2c0 13.27 10.796 24.066 24.066 24.066h42.2v25.634c0 20.709-14.998 37.969-34.7 41.519v-17.452h.784c4.142 0 7.5-3.357 7.5-7.5s-3.358-7.5-7.5-7.5h-8.284c-32.403 0-58.766-26.362-58.766-58.767zm66.266 141.6v-35.207c28.007-3.687 49.7-27.696 49.7-56.693v-25.633h51.267v25.634c0 28.997 21.693 53.006 49.7 56.693v35.207h-150.667zm150.667 97.834v51.267h-51.267v-51.267zm-25.633 117.533c-14.134 0-25.633-11.499-25.633-25.633v-25.634h51.267v25.634c-.001 14.134-11.5 25.633-25.634 25.633zm33.133-298.2h-8.284c-4.142 0-7.5 3.357-7.5 7.5s3.358 7.5 7.5 7.5h.784v17.453c-19.702-3.551-34.7-20.81-34.7-41.519v-25.634h42.2c13.271 0 24.066-10.796 24.066-24.066v-42.2h34.7v42.2c.001 32.404-26.362 58.766-58.766 58.766zm158.167-124.467c0 4.687-3.813 8.5-8.5 8.5h-9.633v-42.2c0-4.143-3.358-7.5-7.5-7.5s-7.5 3.357-7.5 7.5v42.2h-9.633c-4.687 0-8.5-3.813-8.5-8.5v-50.833c0-4.687 3.813-8.5 8.5-8.5h34.266c4.687 0 8.5 3.813 8.5 8.5z"/></svg>